<svg xmlns="http://www.w3.org/2000/svg" viewBox="0 0 64 64" id="store-building">
  <g>
    <path d="M27.02,37.91c0-.53-.43-.96-.96-.96h-7.11c-.53,0-.96.43-.96.96v10.74h-3.57v-15.91h-1.92v15.91h-4.9v1.92h26.15v-1.92h-6.71v-10.74ZM19.9,38.87h5.19v9.78h-5.19v-9.78Z"></path>
    <rect width="5.77" height="1.92" x="50.65" y="48.65"></rect>
    <rect width="1.92" height="6.97" x="49.59" y="32.74"></rect>
    <path d="M9.95 30.8c.5.31 1.08.47 1.67.47h40.76c.6 0 1.17-.16 1.67-.47.47-.29.86-.7 1.13-1.18.27-.49.41-1.03.4-1.58 0-.58-.17-1.16-.49-1.67l-7.17-11.44c-.29-.46-.69-.84-1.16-1.1s-1.01-.4-1.55-.4h-26.43c-.54 0-1.08.14-1.55.4s-.87.64-1.16 1.1l-3.22 5.14 1.63 1.02 3.22-5.14c.23-.37.64-.6 1.08-.6h5.18l-6.65 13.99h-5.7c-.47 0-.89-.25-1.11-.66-.23-.41-.21-.9.03-1.29l2.21-3.53-1.63-1.02-2.21 3.53c-.32.5-.49 1.08-.49 1.67 0 .55.13 1.1.4 1.58.27.49.66.89 1.13 1.18zM32.96 29.34v-13.99h4.94l6.65 13.99h-11.59zM46.29 15.95l7.17 11.44c.25.4.26.88.03 1.29-.23.41-.64.66-1.11.66h-5.7l-6.65-13.99h5.18c.44 0 .85.22 1.08.6zM26.1 15.35h4.94v13.99h-11.59l6.65-13.99zM45.55 33.79h-14.81c-.53 0-.96.43-.96.96v8.85c0 .53.43.96.96.96h1.69v-1.92h-.73v-6.92h12.88v4h1.92v-4.97c0-.53-.43-.96-.96-.96z"></path>
  </g>
  <path fill="#5cb848" d="M50.56,50.57h-16.73c-.53,0-.96-.43-.96-.96v-2.83c0-1.51,1.28-2.74,2.85-2.74h3.75c.1-.65.3-1.25.6-1.74.51-.85,1.27-1.34,2.09-1.34h6.61c.82,0,1.58.49,2.09,1.34.43.71.66,1.63.66,2.6v4.72c0,.53-.43.96-.96.96ZM34.79,48.65h14.81v-3.76c0-1.3-.59-2.01-.83-2.01h-6.61c-.24,0-.83.7-.83,2.01v.11c0,.53-.43.96-.96.96h-4.65c-.51,0-.93.37-.93.82v1.87Z"></path>
</svg>
